<?xml version="1.0" encoding="UTF-8"?>
<svg preserveAspectRatio="none" version="1.1" viewBox="0 0 1440 560" xmlns="http://www.w3.org/2000/svg">
<g mask="url(#a)">
<rect width="1440" height="560" fill="rgba(0, 48, 73, 1)"/>
<path d="m0 585.56c108.9-3.223 198.9-74.654 292.41-130.56 96.707-57.813 205.97-104.16 262.88-201.41 59.395-101.5 71.279-224.87 54.704-341.3-16.589-116.52-70.141-224.35-147.82-312.77-77.334-88.027-172.92-183.19-290.07-185.66-115.89-2.449-181.98 141.1-293.32 173.33-112.05 32.444-265.22-76.385-342.7 10.82-77.104 86.778 22.607 224 31.198 339.77 6.402 86.276-7.419 169.85 12.86 253.96 24.24 100.53 40.684 210.16 116.11 280.9 80.414 75.426 193.54 116.18 303.75 112.91" fill="#001f30"/>
<path d="m1440 1202.6c119.14 24.085 233.68-54.192 337.33-117.68 105.5-64.622 231.13-131.07 263.65-250.44 32.264-118.43-78.356-225.71-101.07-346.33-21.308-113.16 32.844-239.36-27.659-337.33-62.827-101.74-177.8-176.89-296.85-188.16-114.7-10.864-199.08 110.25-312.5 130.45-135.62 24.148-301.85-94.152-404.89-2.716-98.899 87.764-12.699 256.33-28.793 387.57-15.639 127.53-133.6 263.89-64.37 372.13 71.928 112.45 258.68 49.35 375.39 114.13 104.88 58.209 142.19 214.62 259.76 238.39" fill="#004163"/>
</g>
<defs>
<mask id="a">
<rect width="1440" height="560" fill="#fff"/>
</mask>
</defs>
</svg>
