<svg xmlns="http://www.w3.org/2000/svg" version="1.1" xmlns:xlink="http://www.w3.org/1999/xlink" xmlns:svgjs="http://svgjs.com/svgjs" width="1440" height="560" preserveAspectRatio="none" viewBox="0 0 1440 560"><g mask="url(&quot;#SvgjsMask1062&quot;)" fill="none"><rect width="1440" height="560" x="0" y="0" fill="rgba(247, 127, 0, 1)"></rect><path d="M0,654.251C117.663,622.513,163.878,480.402,267.011,415.477C371.677,349.587,532.098,376.881,602.323,275.072C672.569,173.232,626.398,34.79,614.542,-88.358C602.109,-217.503,608.325,-355.996,531.501,-460.548C452.453,-568.128,326.682,-645.976,193.997,-660.692C67.937,-674.673,-35.354,-570.521,-157.673,-536.984C-283.154,-502.58,-438.148,-550.992,-532.577,-461.481C-627.232,-371.756,-610.832,-219.587,-628.788,-90.406C-646.656,38.147,-681.912,169.152,-637.167,290.984C-590.854,417.083,-495.695,523.193,-378.994,589.727C-265.366,654.51,-126.285,688.314,0,654.251" fill="#a15300"></path><path d="M1440 1158.7559999999999C1568.292 1182.336 1715.811 1230.3339999999998 1823.3899999999999 1156.567 1931.1190000000001 1082.6979999999999 1910.5810000000001 918.504 1964.129 799.362 2017.2359999999999 681.201 2168.508 585.392 2136.525 459.855 2103.688 330.966 1922.805 314.9 1819.394 231.25400000000002 1739.031 166.25099999999998 1687.68 74.20999999999998 1597.44 23.807000000000016 1489.174-36.66399999999999 1368.542-123.47500000000002 1250.107-86.71500000000003 1131.538-49.91300000000001 1110.269 110.10399999999998 1025.9189999999999 201.197 937.457 296.731 774.069 333.255 743.934 459.921 713.935 586.018 806.071 709.203 879.679 815.89 944.512 909.8589999999999 1040.234 970.9359999999999 1137.613 1030.5230000000001 1232.932 1088.8490000000002 1330.093 1138.5549999999998 1440 1158.7559999999999" fill="#ffa94e"></path></g><defs><mask id="SvgjsMask1062"><rect width="1440" height="560" fill="#ffffff"></rect></mask></defs></svg>