<?xml version="1.0" encoding="UTF-8"?>
<svg preserveAspectRatio="none" version="1.1" viewBox="0 0 1440 560" xmlns="http://www.w3.org/2000/svg">
<g mask="url(#a)">
<rect width="1440" height="560" fill="rgba(247, 127, 0, 1)"/>
<path d="m0 654.25c117.66-31.738 163.88-173.85 267.01-238.77 104.67-65.89 265.09-38.596 335.31-140.4 70.246-101.84 24.075-240.28 12.219-363.43-12.433-129.14-6.217-267.64-83.041-372.19-79.048-107.58-204.82-185.43-337.5-200.14-126.06-13.981-229.35 90.171-351.67 123.71-125.48 34.404-280.48-14.008-374.9 75.503-94.655 89.725-78.255 241.89-96.211 371.08-17.868 128.55-53.124 259.56-8.379 381.39 46.313 126.1 141.47 232.21 258.17 298.74 113.63 64.783 252.71 98.587 378.99 64.524" fill="#a15300"/>
<path d="m1440 1158.8c128.29 23.58 275.81 71.578 383.39-2.189 107.73-73.869 87.191-238.06 140.74-357.2 53.107-118.16 204.38-213.97 172.4-339.51-32.837-128.89-213.72-144.96-317.13-228.6-80.363-65.003-131.71-157.04-221.95-207.45-108.27-60.471-228.9-147.28-347.33-110.52-118.57 36.802-139.84 196.82-224.19 287.91-88.462 95.534-251.85 132.06-281.98 258.72-29.999 126.1 62.137 249.28 135.74 355.97 64.833 93.969 160.56 155.05 257.93 214.63 95.319 58.326 192.48 108.03 302.39 128.23" fill="#ffa94e"/>
</g>
<defs>
<mask id="a">
<rect width="1440" height="560" fill="#fff"/>
</mask>
</defs>
</svg>
